<svg version="1.1" viewBox="0 0 114 27" xmlns="http://www.w3.org/2000/svg">
<path d="m59.469 7.4302h-3.6816l-2.6052 4.5784h-1.3411l-0.0427-9.9086h-3.4851v17.895h3.4851l0.0427-4.9115h1.3325l3.4595 4.9115h3.8609l-4.5101-6.5089 3.4851-6.0561z" fill="#000"/>
<path d="m85.846 13.324c-0.708-0.4582-1.4754-0.8175-2.2807-1.0677l-0.7688-0.2905-0.205-0.0768c-0.4783-0.1794-0.9823-0.3673-0.9994-0.8542-0.0045-0.1443 0.0276-0.2873 0.0933-0.4157 0.0658-0.1285 0.163-0.2382 0.2826-0.3189 0.2523-0.174 0.548-0.2745 0.8541-0.2904 0.6675-0.04612 1.329 0.1511 1.8622 0.5552l0.0939 0.0598 1.8621-2.144-0.0939-0.07688c-0.2318-0.20667-0.4836-0.38979-0.7517-0.54668-0.4802-0.27476-1.0027-0.46815-1.5461-0.57231-0.7828-0.16653-1.5918-0.16653-2.3746 0-0.7568 0.10017-1.4748 0.39443-2.0842 0.85419-0.3897 0.30494-0.7156 0.68369-0.9588 1.1146-0.2433 0.4309-0.3994 0.90553-0.4592 1.3967-0.1068 0.8864 0.1184 1.7811 0.6321 2.5113 0.6825 0.7557 1.5746 1.291 2.5626 1.5375l0.1537 0.0513 0.3503 0.1196c1.2641 0.4271 1.6229 0.5979 1.8279 0.8542 0.0954 0.1289 0.149 0.2839 0.1538 0.4441 0 0.6065-0.7432 0.8542-1.2471 1.008-0.3524 0.0662-0.7147 0.0594-1.0643-0.02-0.3497-0.0793-0.6794-0.2295-0.9687-0.4413-0.4683-0.3131-0.8691-0.7168-1.1788-1.1873-0.1965 0.205-2.1269 2.1098-2.0928 2.144l0.0598 0.0854c0.9304 1.1646 2.2335 1.973 3.6901 2.2892 0.3329 0.0644 0.6696 0.1072 1.008 0.1282h0.3502c1.1506 0.0241 2.2779-0.3267 3.2117-0.9994 0.6316-0.4468 1.1163-1.0711 1.3924-1.7938 0.1679-0.4852 0.2274-1.0013 0.1743-1.5119s-0.2176-1.0034-0.4818-1.4436c-0.2701-0.439-0.6313-0.8147-1.0592-1.1019z" fill="#000"/>
<path d="m97.104 13.324c-0.705-0.4582-1.4695-0.8174-2.2721-1.0677l-0.7774-0.2905-0.1964-0.0768c-0.4869-0.1794-0.9823-0.3673-1.008-0.8542 0.0023-0.144 0.0383-0.2854 0.1051-0.4129 0.0667-0.1276 0.1624-0.2378 0.2793-0.3217 0.2524-0.174 0.5481-0.2745 0.8542-0.2904 0.6672-0.04457 1.3282 0.1525 1.8621 0.5552l0.0854 0.0598 1.8622-2.144-0.0854-0.07688c-0.2333-0.2087-0.4882-0.39196-0.7603-0.54668-0.4773-0.27446-0.9969-0.46785-1.5375-0.57231-0.7856-0.16672-1.5975-0.16672-2.3832 0-0.756 0.10314-1.4733 0.39711-2.0842 0.85419-0.3923 0.30209-0.7209 0.67871-0.9672 1.1082s-0.4053 0.90341-0.4678 1.3945c-0.1119 0.8868 0.1138 1.7832 0.6321 2.5114 0.6824 0.7557 1.5746 1.2909 2.5625 1.5375l0.1452 0.0512 0.3503 0.1196c1.2727 0.4271 1.6315 0.598 1.8365 0.8542 0.0984 0.1268 0.1497 0.2838 0.1452 0.4442 0 0.6065-0.7346 0.8542-1.2386 1.0079-0.3538 0.0664-0.7174 0.0597-1.0684-0.0196-0.3511-0.0793-0.6822-0.2296-0.9731-0.4416-0.4645-0.3177-0.8645-0.7206-1.1788-1.1873-0.1879 0.205-2.1184 2.1098-2.0927 2.144l0.0683 0.0854c0.9303 1.1645 2.2335 1.973 3.6901 2.2892 0.3328 0.0649 0.6695 0.1077 1.0079 0.1281h0.3502c1.1507 0.0241 2.278-0.3266 3.2118-0.9994 0.6316-0.4467 1.1162-1.0711 1.3923-1.7938 0.168-0.4851 0.2275-1.0012 0.1744-1.5118-0.0532-0.5107-0.2177-1.0035-0.4819-1.4436-0.2667-0.4337-0.6218-0.8062-1.0421-1.0934z" fill="#000"/>
<path d="m70.914 7.4302v1.23h-0.1538c-0.9539-0.95518-2.2462-1.4954-3.5961-1.5034-0.8275-0.01635-1.6492 0.14177-2.4116 0.46408-0.7623 0.32231-1.4483 0.80157-2.0131 1.4066-1.1391 1.2757-1.7499 2.9371-1.7084 4.6468-0.0441 1.7384 0.5655 3.4301 1.7084 4.7407 0.5514 0.6054 1.2265 1.0851 1.9797 1.4064s1.5666 0.4767 2.3852 0.4558c1.3516-0.0254 2.6514-0.5242 3.673-1.4095h0.1367v1.1019h3.6217v-12.539h-3.6217zm0.1794 6.3124c0.0363 1.0105-0.3013 1.999-0.9482 2.7761-0.3101 0.3473-0.6927 0.6221-1.1207 0.8051-0.4281 0.1831-0.8911 0.2698-1.3564 0.2541-0.4513 0.0076-0.8984-0.0868-1.3081-0.2761s-0.7714-0.4687-1.058-0.8172c-0.6393-0.7933-0.9673-1.7925-0.9225-2.8103-0.0291-0.9872 0.3053-1.9507 0.9396-2.7078 0.292-0.3433 0.6563-0.6178 1.0668-0.8039 0.4106-0.18603 0.8571-0.27904 1.3078-0.27235 0.4622-0.01439 0.9218 0.07391 1.3457 0.25855 0.4239 0.1846 0.8016 0.461 1.1058 0.8092 0.6468 0.7806 0.9842 1.7716 0.9482 2.7846z" fill="#000"/>
<path d="m110.31 7.4301v1.23h-0.153c-0.952-0.9531-2.241-1.4932-3.588-1.5034-0.829-0.01542-1.651 0.14309-2.415 0.4653-0.763 0.32221-1.451 0.80097-2.018 1.4054-1.139 1.2756-1.75 2.937-1.708 4.6468-0.045 1.7384 0.565 3.4301 1.708 4.7408 0.551 0.6054 1.226 1.085 1.98 1.4063 0.753 0.3213 1.566 0.4768 2.385 0.4558 1.351-0.0254 2.651-0.5242 3.673-1.4094h0.136v1.1019h3.622v-12.539h-3.622zm0.18 6.3125c0.04 1.0111-0.298 2.0009-0.948 2.7761-0.31 0.3472-0.693 0.6221-1.121 0.8051s-0.891 0.2698-1.356 0.2541c-0.452 0.0076-0.899-0.0868-1.308-0.2761-0.41-0.1894-0.772-0.4687-1.059-0.8173-0.639-0.7933-0.967-1.7925-0.922-2.8103-0.029-0.9872 0.305-1.9507 0.94-2.7077 0.292-0.3434 0.656-0.6179 1.066-0.8039 0.411-0.18609 0.858-0.27911 1.308-0.27242 0.462-0.01439 0.922 0.07391 1.346 0.25852 0.424 0.1847 0.801 0.461 1.106 0.8092 0.65 0.7786 0.988 1.771 0.948 2.7847z" fill="#000"/>
<path d="m24.522 0c-7.519 0-13.5 6.0665-13.5 13.5 0 7.519 6.0664 13.5 13.5 13.5 7.4335 0 13.5-6.0665 13.5-13.5s-6.0665-13.5-13.5-13.5zm0 18.456c-2.7342 0-5.0412-2.307-5.0412-5.0411 0-2.7342 2.307-5.0412 5.0412-5.0412 2.7341 0 5.0411 2.307 5.0411 5.0412-0.0854 2.8196-2.307 5.0411-5.0411 5.0411z" fill="url(#paint0_linear)"/>
<path d="M10.9367 3.84497V23.4969H6.1519L0 3.84497H10.9367Z" fill="url(#paint1_linear)"/>
<defs>
<linearGradient id="paint0_linear" x1="24.522" x2="24.522" y2="27" gradientUnits="userSpaceOnUse">
<stop stop-color="#0160D1" offset="0"/>
<stop stop-color="#00479C" offset="1"/>
</linearGradient>
<linearGradient id="paint1_linear" x1="5.4684" x2="5.4684" y1="3.845" y2="23.497" gradientUnits="userSpaceOnUse">
<stop stop-color="#0160D1" offset="0"/>
<stop stop-color="#00479C" offset="1"/>
</linearGradient>
</defs>
</svg>